<svg width="19" height="23" viewBox="0 0 19 23" fill="none" xmlns="http://www.w3.org/2000/svg">
<path d="M15.8314 21.6479C14.6037 22.838 13.2632 22.6501 11.9728 22.0864C10.6073 21.5101 9.35455 21.485 7.91386 22.0864C6.10987 22.8631 5.15776 22.6376 4.08038 21.6479C-2.03315 15.3465 -1.13116 5.75022 5.8092 5.39945C7.50044 5.48714 8.67805 6.3265 9.66774 6.40166C11.146 6.101 12.5616 5.23659 14.1401 5.34934C16.0318 5.49967 17.46 6.25133 18.3996 7.60433C14.4909 9.94701 15.418 15.0959 19.0009 16.5366C18.2868 18.4157 17.3598 20.2824 15.8189 21.6604L15.8314 21.6479ZM9.54246 5.32428C9.35455 2.5306 11.6221 0.225499 14.2278 0C14.5911 3.23215 11.2963 5.63747 9.54246 5.32428Z" fill="black"/>
</svg>
